<?xml version="1.0" encoding="UTF-8"?>
<svg width="55px" height="55px" viewBox="0 0 55 55" version="1.1" xmlns="http://www.w3.org/2000/svg" xmlns:xlink="http://www.w3.org/1999/xlink">
    <title>6</title>
    <g id="6" stroke="none" stroke-width="1" fill="none" fill-rule="evenodd">
        <g id="Group" transform="translate(8.000000, 17.000000)">
            <ellipse id="Oval-Copy-36" fill="#FFFFFF" cx="32.0468325" cy="16" rx="3.04683253" ry="3"></ellipse>
            <ellipse id="Oval-Copy-37" fill="#FFFFFF" cx="7.04683253" cy="16" rx="3.04683253" ry="3"></ellipse>
            <g id="Group-3-Copy">
                <ellipse id="Oval-Copy-29" fill="#FFFFFF" cx="32.0468325" cy="15.6160364" rx="3.04683253" ry="3"></ellipse>
                <ellipse id="Oval-Copy-30" fill="#FFFFFF" cx="7.04683253" cy="15.6160364" rx="3.04683253" ry="3"></ellipse>
                <g id="Group-27" stroke="#000000" stroke-width="1.2">
                    <g id="Group-7">
                        <path d="M26.2985618,16.2663753 L14.1255102,16.2663753 M4.11189762,16.2663753 C3.42036482,16.2663753 2.38306561,16.2663753 1,16.2663753 C0.44771525,16.2663753 0,15.81866 0,15.2663753 L0,13.2527484 C0,11.9812688 0.813244362,10.8523009 2.01925548,10.4495633 C2.38374796,9.15588559 3.51573636,8.22634996 4.85560562,8.12048599 L10.9346605,7.64017579 L15.4937654,3.68155557 C16.4585612,3.06503007 17.5796173,2.73742843 18.7245779,2.73742843 L30.3013285,2.73742843 C31.5727319,2.73742843 33.7297338,2.45084399 35.7329696,4.00025972 C37.0684602,5.03320354 38.0312428,6.46533757 38.6213175,8.29666179 L39.1161719,14.0963443 C39.2100774,15.1969148 38.3940142,16.165229 37.2934436,16.2591345 C37.2368951,16.2639595 37.1801667,16.2663753 37.1234127,16.2663753 C36.3108487,16.2663753 35.7014257,16.2663753 35.2951437,16.2663753" id="Shape" stroke-linecap="round"></path>
                        <line x1="20.6806155" y1="0.826567829" x2="20.6806155" y2="1.82656783" id="Line-Copy-3" stroke-linecap="square"></line>
                        <line x1="30.6806155" y1="0.826567829" x2="30.6806155" y2="1.82656783" id="Line-Copy-4" stroke-linecap="square"></line>
                        <line x1="19.0791803" y1="0.5" x2="32.4004587" y2="0.5" id="Line-Copy-5" stroke-linecap="round"></line>
                        <polyline id="Path-9" points="23.7820317 2.73742843 22.6576097 8.29666179 22.6576097 16.2663753"></polyline>
                        <path d="M11.0702036,7.70332426 L12.1501406,8.43587266 C12.3157875,8.54823508 12.511342,8.60830218 12.7115025,8.60830218 L33.1388391,8.60830218 C33.2189047,8.60830218 33.2986807,8.59868654 33.3764533,8.57966179 L33.9180063,8.44718696 L33.9180063,8.44718696 L37.8832236,7.07917212" id="Path-10"></path>
                        <line x1="31.8845942" y1="3.49733179" x2="32.9163232" y2="8.15581322" id="Line-4" stroke-linecap="square"></line>
                        <path d="M1.20419395,10.794857 L5.64765842,10.2005155 C6.72527226,10.0563778 7.49036612,9.07779616 7.37026708,7.99723914 L7.34816104,7.79834633 L7.34816104,7.79834633" id="Path-11"></path>
                        <line x1="18.2985618" y1="11.8464954" x2="20.2985618" y2="11.8464954" id="Line-5" stroke-linecap="round" stroke-linejoin="round"></line>
                        <line x1="25.2985618" y1="11.8464954" x2="27.2985618" y2="11.8464954" id="Line-5-Copy" stroke-linecap="round" stroke-linejoin="round"></line>
                        <ellipse id="Oval-Copy" stroke-linejoin="round" cx="7.34816104" cy="15.9495633" rx="3.04683253" ry="3"></ellipse>
                        <ellipse id="Oval-Copy-7" stroke-linejoin="round" cx="31.8845942" cy="15.9495633" rx="3.04683253" ry="3"></ellipse>
                    </g>
                </g>
            </g>
        </g>
    </g>
</svg>