<?xml version="1.0" encoding="UTF-8"?>
<svg width="55px" height="55px" viewBox="0 0 55 55" version="1.1" xmlns="http://www.w3.org/2000/svg" xmlns:xlink="http://www.w3.org/1999/xlink">
    <title>2 color</title>
    <g id="2-color" stroke="none" stroke-width="1" fill="none" fill-rule="evenodd">
        <g id="Group-30" transform="translate(9.000000, 19.000000)">
            <path d="M4.15753684,12.5128534 L2.43154545,12.5128534 C1.47830673,12.5128534 0.705554057,11.7401007 0.705554057,10.786862 L0.705554057,7.37435262 C0.705554057,6.38420732 1.43005049,5.54310213 2.40927067,5.39642033 L8.75854518,4.4453339 C9.02994614,4.40467953 9.30680993,4.4203142 9.57190846,4.49126505 L14.6319166,5.84552329 C14.8005698,5.89066155 14.9744074,5.91352215 15.1489965,5.91352215 L35.2623828,5.91352215 C36.3669523,5.91352215 37.2623828,6.80895265 37.2623828,7.91352215 C37.2623828,8.07726831 37.2422735,8.24039476 37.2025064,8.39923866 L36.551755,10.9985699 C36.3289357,11.8885893 35.5291188,12.5128534 34.6116315,12.5128534 L7.89980942,12.5128534 L4.15753684,12.5128534 Z" id="Path-2" fill="#FFAB00"></path>
            <ellipse id="Oval-Copy-23" fill="#FFFFFF" cx="8.04683253" cy="12" rx="3.04683253" ry="3"></ellipse>
            <ellipse id="Oval-Copy-24" fill="#FFFFFF" cx="27.0468325" cy="12" rx="3.04683253" ry="3"></ellipse>
            <g id="Group-17" stroke="#000000" stroke-width="1.2">
                <g id="Group-18">
                    <g id="Group-5">
                        <path d="M9.17000423,4.20158889 L13.3378599,5.47663913 C13.7170841,5.59265317 14.1114525,5.65162772 14.5080256,5.65162772 L32.8894259,5.65162772 L32.8894259,5.65162772" id="Path-6"></path>
                        <line x1="20.8718041" y1="0.856039419" x2="20.5" y2="11.5" id="Line-3" stroke-linecap="square"></line>
                        <path d="M33.4869419,5.91352215 C33.5285672,6.51969011 33.7174732,7.11638631 34.0536598,7.70361076 C34.3898465,8.29083521 35.4154655,8.5781801 37.1305169,8.56564543" id="Path-7"></path>
                        <path d="M3.29625178,12.5128534 L2.56735065,12.5128534 C1.63574795,12.5128534 0.827520488,11.8696417 0.618393607,10.9618149 L0.223230686,9.62183048 C0.0488115594,8.86467119 -0.17692834,6.70574702 0.223230686,6.03972526 C0.490003371,5.59571075 1.95379835,5.43461473 4.61461563,5.5564372 C5.69938016,3.75096304 7.96009186,0.47355977 10.0663803,0.47355977 L19.6060382,0.47355977 C20.6966392,0.47355977 21.7666157,0.770813463 22.7009331,1.33336276 L28.2539623,4.20158889 L34.6918387,4.77873701 C36.2386832,4.91740981 37.4239665,6.21370587 37.4239665,7.76675382 L37.4239665,10.5128534 C37.4239665,11.6174229 36.528536,12.5128534 35.4239665,12.5128534 C34.1240898,12.5128534 33.1491822,12.5128534 32.4992438,12.5128534 M23.7333047,12.5128534 L13.4491012,12.5128534" id="Shape" stroke-linecap="round" transform="translate(18.711983, 6.743207) scale(-1, 1) translate(-18.711983, -6.743207) "></path>
                        <polyline id="Path-3" transform="translate(27.357586, 2.825814) scale(-1, 1) translate(-27.357586, -2.825814) " points="27.9993448 0 26.7158276 5.65162772 26.8428966 5.65162772"></polyline>
                        <ellipse id="Oval-Copy" stroke-linejoin="round" cx="7.90864592" cy="11.9742932" rx="3.04683253" ry="3"></ellipse>
                        <ellipse id="Oval-Copy-7" stroke-linejoin="round" cx="27.4450791" cy="11.9742932" rx="3.04683253" ry="3"></ellipse>
                        <line x1="15.9866073" y1="8.18560695" x2="17.9866073" y2="8.18560695" id="Line-5" stroke-linecap="round" stroke-linejoin="round"></line>
                    </g>
                    <path d="M0.705554057,7.75877629 L4.1152268,6.86556331 C4.5550705,6.7503399 4.86181339,6.35289075 4.86181339,5.89820523 L4.86181339,5.11577147 L4.86181339,5.11577147" id="Path-34" stroke-linecap="round" stroke-linejoin="round"></path>
                </g>
            </g>
        </g>
    </g>
</svg>