<?xml version="1.0" encoding="UTF-8"?>
<svg width="55px" height="55px" viewBox="0 0 55 55" version="1.1" xmlns="http://www.w3.org/2000/svg" xmlns:xlink="http://www.w3.org/1999/xlink">
    <title>3 color</title>
    <g id="3-color" stroke="none" stroke-width="1" fill="none" fill-rule="evenodd">
        <path d="M9.57751761,30.4742932 C9.57751761,30.2061695 8.82331431,29.5875205 9,27.9742932 C9.06020304,27.4246099 9.45443376,26.3170547 10.1826922,24.6516277 L19.9554784,23.8836996 L41.573604,24.583944 L43.4128271,23.3836996 L45.5288236,26.685607 L43.4128271,31.0128534 C20.8559541,31.0589758 9.57751761,30.8794558 9.57751761,30.4742932 Z" id="Path-47" fill="#FFAB00"></path>
        <g id="Group-29-Copy" transform="translate(9.000000, 20.000000)">
            <ellipse id="Oval-Copy-25" fill="#FFFFFF" cx="8.04683253" cy="10.5" rx="3.04683253" ry="3"></ellipse>
            <ellipse id="Oval-Copy-26" fill="#FFFFFF" cx="27.0468325" cy="10.5" rx="3.04683253" ry="3"></ellipse>
            <g id="Group-28" stroke="#000000" stroke-width="1.2">
                <g id="Group-5">
                    <path d="M9.54537438,3.61577147 L13.6670474,4.12181618 C13.8287705,4.14167199 13.9915558,4.15162772 14.1544933,4.15162772 L32.573604,4.15162772 L32.573604,4.15162772" id="Path-6"></path>
                    <line x1="20.6872171" y1="0.411005618" x2="20.5026301" y2="3.61577147" id="Line-3" stroke-linecap="square"></line>
                    <path d="M35.1641034,2.90911178 C33.2027411,3.22252966 32.3551434,3.95068095 32.6213103,5.09356567 C32.8874773,6.23645039 34.0977239,6.53859516 36.2520502,6" id="Path-7"></path>
                    <path d="M3.40110883,11.0128534 L2.6722077,11.0128534 C1.740605,11.0128534 0.932377542,10.3696417 0.723250661,9.4618149 L0.076573191,7.65456625 C-0.0978459357,6.89740695 0.0283014295,6.10210873 0.428460456,5.43608697 L2.24663774,2.40992599 C3.33140227,0.604451833 5.37570259,0 7.48199104,0 L18.805932,0 C19.8965331,0 20.9665095,0.297253693 21.9008269,0.859802988 L27.3588193,3.70158889 L33.7966958,4.27873701 C35.3435403,4.41740981 36.5288236,5.71370587 36.5288236,7.26675382 L36.5288236,9.01285339 C36.5288236,10.1174229 35.6333931,11.0128534 34.5288236,11.0128534 C33.2289468,11.0128534 32.2540392,11.0128534 31.6041009,11.0128534 M22.8381618,11.0128534 L12.5539582,11.0128534" id="Shape" stroke-linecap="round" transform="translate(18.264412, 5.756427) scale(-1, 1) translate(-18.264412, -5.756427) "></path>
                    <polyline id="Path-3" transform="translate(27.678466, 2.075814) scale(-1, 1) translate(-27.678466, -2.075814) " points="27.9993448 0 27.3575862 4.15162772 27.4846552 4.15162772"></polyline>
                    <ellipse id="Oval-Copy" stroke-linejoin="round" cx="7.90864592" cy="10.4742932" rx="3.04683253" ry="3"></ellipse>
                    <ellipse id="Oval-Copy-7" stroke-linejoin="round" cx="27.4450791" cy="10.4742932" rx="3.04683253" ry="3"></ellipse>
                    <line x1="16.9866073" y1="6.68560695" x2="18.9866073" y2="6.68560695" id="Line-5" stroke-linecap="round" stroke-linejoin="round"></line>
                </g>
            </g>
        </g>
    </g>
</svg>