<?xml version="1.0" encoding="UTF-8"?>
<svg width="55px" height="55px" viewBox="0 0 55 55" version="1.1" xmlns="http://www.w3.org/2000/svg" xmlns:xlink="http://www.w3.org/1999/xlink">
    <title>5</title>
    <g id="5" stroke="none" stroke-width="1" fill="none" fill-rule="evenodd">
        <g id="Group-35" transform="translate(7.000000, 20.000000)">
            <ellipse id="Oval-Copy-34" fill="#FFFFFF" cx="9.04683253" cy="10" rx="3.04683253" ry="3"></ellipse>
            <ellipse id="Oval-Copy-35" fill="#FFFFFF" cx="32.0468325" cy="10" rx="3.04683253" ry="3"></ellipse>
            <g id="Group-26-Copy" stroke="#000000" stroke-linejoin="round" stroke-width="1.2">
                <g id="Group-10">
                    <path d="M26.899133,11.6200829 C19.1116677,11.4888974 16.4608284,11.6184117 12.2799735,11.5423743 M5.95352143,11.5423743 C2.04562418,11.4609241 0.478912968,11.2221659 0,11.1836165 C0,10.4155672 0.431155591,9.25949296 1.29346677,7.71539386 C1.62609554,7.11977992 2.15179029,6.65531904 2.78385182,6.39861669 C6.37650469,4.93951437 10.0421196,4.05297442 13.7806966,3.73899682 C17.8519432,3.39708058 24.5807124,3.31570835 33.9670041,3.49488015 L39.6281714,4.89283221 L40.2238673,9.07858751 C40.2840643,9.50157123 40.0688854,9.91607658 39.6883107,10.110246 L38.2420792,10.7395299" id="Shape" stroke-linecap="round"></path>
                    <path d="M15.165656,11.0812286 C15.165656,11.0812286 14.7735587,9.65472674 13.9893642,6.80172295 L15.0221019,3.49488015 L21.5198662,0 C26.5156105,0 30.6613541,1.16496005 33.957097,3.49488015" id="Path-37"></path>
                    <polyline id="Path-38" stroke-linecap="round" points="38.9106185 4.25187119 38.9106185 1.39795206 37.57354 1.39795206"></polyline>
                    <line x1="26.824495" y1="0.801722946" x2="27.824495" y2="3.80172295" id="Line-8"></line>
                    <ellipse id="Oval-Copy-17" cx="9.23314093" cy="10.2760162" rx="3.04683253" ry="3"></ellipse>
                    <ellipse id="Oval-Copy-18" cx="32.2331409" cy="10.2760162" rx="3.04683253" ry="3"></ellipse>
                    <line x1="22.824495" y1="6.80172295" x2="26.824495" y2="6.80172295" id="Line-9" stroke-linecap="round"></line>
                    <line x1="22.824495" y1="8.80172295" x2="26.824495" y2="8.80172295" id="Line-9-Copy" stroke-linecap="round"></line>
                </g>
            </g>
        </g>
        <g id="Group-35" transform="translate(7.000000, 20.000000)">
            <ellipse id="Oval-Copy-34" fill="#FFFFFF" cx="9.04683253" cy="10" rx="3.04683253" ry="3"></ellipse>
            <ellipse id="Oval-Copy-35" fill="#FFFFFF" cx="32.0468325" cy="10" rx="3.04683253" ry="3"></ellipse>
            <g id="Group-26-Copy" stroke="#000000" stroke-linejoin="round" stroke-width="1.2">
                <g id="Group-10">
                    <path d="M26.899133,11.6200829 C19.1116677,11.4888974 16.4608284,11.6184117 12.2799735,11.5423743 M5.95352143,11.5423743 C2.04562418,11.4609241 0.478912968,11.2221659 0,11.1836165 C0,10.4155672 0.431155591,9.25949296 1.29346677,7.71539386 C1.62609554,7.11977992 2.15179029,6.65531904 2.78385182,6.39861669 C6.37650469,4.93951437 10.0421196,4.05297442 13.7806966,3.73899682 C17.8519432,3.39708058 24.5807124,3.31570835 33.9670041,3.49488015 L39.6281714,4.89283221 L40.2238673,9.07858751 C40.2840643,9.50157123 40.0688854,9.91607658 39.6883107,10.110246 L38.2420792,10.7395299" id="Shape" stroke-linecap="round"></path>
                    <path d="M15.165656,11.0812286 C15.165656,11.0812286 14.7735587,9.65472674 13.9893642,6.80172295 L15.0221019,3.49488015 L21.5198662,0 C26.5156105,0 30.6613541,1.16496005 33.957097,3.49488015" id="Path-37"></path>
                    <polyline id="Path-38" stroke-linecap="round" points="38.9106185 4.25187119 38.9106185 1.39795206 37.57354 1.39795206"></polyline>
                    <line x1="26.824495" y1="0.801722946" x2="27.824495" y2="3.80172295" id="Line-8"></line>
                    <ellipse id="Oval-Copy-17" cx="9.23314093" cy="10.2760162" rx="3.04683253" ry="3"></ellipse>
                    <ellipse id="Oval-Copy-18" cx="32.2331409" cy="10.2760162" rx="3.04683253" ry="3"></ellipse>
                    <line x1="22.824495" y1="6.80172295" x2="26.824495" y2="6.80172295" id="Line-9" stroke-linecap="round"></line>
                    <line x1="22.824495" y1="8.80172295" x2="26.824495" y2="8.80172295" id="Line-9-Copy" stroke-linecap="round"></line>
                </g>
            </g>
        </g>
    </g>
</svg>