<?xml version="1.0" encoding="UTF-8"?>
<svg width="55px" height="55px" viewBox="0 0 55 55" version="1.1" xmlns="http://www.w3.org/2000/svg" xmlns:xlink="http://www.w3.org/1999/xlink">
    <title>9</title>
    <g id="9" stroke="none" stroke-width="1" fill="none" fill-rule="evenodd">
        <g id="Group-20-Copy" transform="translate(4.000000, 15.000000)">
            <g id="Group-12">
                <line x1="14.2132759" y1="15.5" x2="16.2132759" y2="15.5" id="Line-5" stroke="#000000" stroke-width="1.2" stroke-linecap="round" stroke-linejoin="round"></line>
                <path d="M40.8965517,12.7497831 L40.8965517,14.7497831 C40.8965517,15.3020678 41.344267,15.7497831 41.8965517,15.7497831 L43.8965517,15.7497831 L43.8965517,15.7497831" id="Path-14" stroke="#000000" stroke-width="1.2"></path>
                <path d="M0.948275862,12.8015072 L1.75985158,16.8926415 C1.85271979,17.360788 2.26346876,17.6980589 2.74073772,17.6980589 L3.94827586,17.6980589 L3.94827586,17.6980589" id="Path-14-Copy" stroke="#000000" stroke-width="1.2" transform="translate(2.448276, 15.249783) rotate(-90.000000) translate(-2.448276, -15.249783) "></path>
                <line x1="44.2132759" y1="19.5" x2="46.5" y2="19.5" id="Line-5-Copy-2" stroke="#000000" stroke-width="1.2" stroke-linecap="round" stroke-linejoin="round"></line>
                <ellipse id="Oval-Copy-6" fill="#FFFFFF" cx="8.55463795" cy="20.5" rx="3.55463795" ry="3.5"></ellipse>
                <path d="M41.8965517,12.7497831 L41.8965517,2 C41.8965517,0.8954305 41.0011212,-2.02906125e-16 39.8965517,0 L20.6206897,0 C19.5161202,-1.91384796e-17 18.6206897,0.8954305 18.6206897,2 L18.6206897,12.4845571 L18.6206897,12.4845571 L18.6206897,20.449033" id="Path-12" stroke="#000000" stroke-width="1.2"></path>
                <path d="M18.6206897,4.67059972 L12.8653362,4.67059972 C11.6471266,4.67059972 10.5498711,5.40727122 10.088656,6.53479744 L8.83306061,9.60433425 C8.78390457,9.72450535 8.75862069,9.85309894 8.75862069,9.98293501 L8.75862069,12.5 L8.75862069,12.5 L41.8965517,12.5 L42.8604316,13.1331988 C43.7047965,13.6878849 44.2132759,14.6303018 44.2132759,15.6405635 L44.2132759,20.0176987 C44.2132759,20.5699835 43.7655606,21.0176987 43.2132759,21.0176987 L41.4961295,21.0176987 L41.4961295,21.0176987 M31.1643315,21.0176987 L15.2132759,21.0176987 M4.60619364,21.0176987 L1,21.0176987 C0.44771525,21.0176987 0,20.5699835 0,20.0176987 L0,16.8253941 C0,15.4566529 0.926434743,14.2614558 2.25194111,13.9201561 L8.75862069,12.2447755 L8.75862069,12.2447755" id="Shape" stroke="#000000" stroke-width="1.2" stroke-linecap="round"></path>
                <circle id="Oval-Copy-2" stroke="#000000" stroke-width="1.2" stroke-linejoin="round" cx="8.71327586" cy="20.5" r="3.5"></circle>
            </g>
            <ellipse id="Oval-Copy-12" fill="#FFFFFF" cx="37.5546379" cy="20.5" rx="3.55463795" ry="3.5"></ellipse>
            <circle id="Oval-Copy-4" stroke="#000000" stroke-width="1.2" stroke-linejoin="round" cx="37.7132759" cy="20.5" r="3.5"></circle>
        </g>
    </g>
</svg>