<?xml version="1.0" encoding="UTF-8"?>
<svg width="55px" height="55px" viewBox="0 0 55 55" version="1.1" xmlns="http://www.w3.org/2000/svg" xmlns:xlink="http://www.w3.org/1999/xlink">
    <title>3 copy 11</title>
    <g id="3-copy-11" stroke="none" stroke-width="1" fill="none" fill-rule="evenodd">
        <rect fill="#FFFFFF" x="0" y="0" width="55" height="55"></rect>
        <g id="Group" transform="translate(9.000000, 18.000000)">
            <g id="Group-29-Copy">
                <ellipse id="Oval-Copy-25" fill="#FFFFFF" cx="8.04683253" cy="12.5" rx="3.04683253" ry="3"></ellipse>
                <ellipse id="Oval-Copy-26" fill="#FFFFFF" cx="27.0468325" cy="12.5" rx="3.04683253" ry="3"></ellipse>
                <g id="Group-28" stroke="#000000" stroke-width="1.2">
                    <g id="Group-5">
                        <path d="M7.4059374,5.44827092 L13.540281,5.94444384 C13.6643501,5.9544791 13.7888199,5.95871761 13.9132842,5.95714554 L34.9389819,5.69157681 L34.9389819,5.69157681" id="Path-6"></path>
                        <polyline id="Line-3" stroke-linecap="square" points="19.9681901 0.771622464 19.5026301 5.61577147 19.5 12.5"></polyline>
                        <path d="M36.1641034,4.90911178 C35.1359228,5.16443701 34.754916,5.86354198 35.0210829,7.00642669 C35.2872499,8.14931141 36.0309057,8.81383584 37.2520502,9" id="Path-7"></path>
                        <path d="M4.40110883,13.0128534 L3.6722077,13.0128534 C2.740605,13.0128534 0.209126881,11.975813 0,11.0679862 L0.076573191,9.65456625 C-0.0978459357,8.89740695 0.0283014295,8.10210873 0.428460456,7.43608697 L1.24663774,3.40992599 C1.77888834,2.52405197 2.30139731,1.68657352 2.94439188,1.06327086 C3.10435026,0.908211247 1.94492902,0.632437964 2.12180533,0.506440048 C2.68299811,0.106674114 4.66627189,0 5.48199104,0 L19.805932,0 C20.8965331,0 23.8857323,1 24.9008269,1.85980299 L30.3443785,5.61577147 L34.8498385,7.00642669 C36.3676984,7.43608697 37.5288236,8.71370587 37.5288236,10.2667538 L37.5288236,11.0128534 C37.5288236,12.1174229 36.6333931,13.0128534 35.5288236,13.0128534 C34.2289468,13.0128534 33.2540392,13.0128534 32.6041009,13.0128534 M23.8381618,13.0128534 L13.5539582,13.0128534" id="Shape" stroke-linecap="round" transform="translate(18.764412, 6.756427) scale(-1, 1) translate(-18.764412, -6.756427) "></path>
                        <polyline id="Path-3" transform="translate(28.503642, 2.967050) scale(-1, 1) translate(-28.503642, -2.967050) " points="29.1785085 0.230212677 27.8287758 5.70388793 27.9558447 5.70388793"></polyline>
                        <ellipse id="Oval-Copy" stroke-linejoin="round" cx="7.90864592" cy="12.4742932" rx="3.04683253" ry="3"></ellipse>
                        <ellipse id="Oval-Copy-7" stroke-linejoin="round" cx="27.4450791" cy="12.4742932" rx="3.04683253" ry="3"></ellipse>
                    </g>
                </g>
            </g>
            <line x1="14.9866073" y1="8.68560695" x2="16.9866073" y2="8.68560695" id="Line-5" stroke="#000000" stroke-width="1.2" stroke-linecap="round" stroke-linejoin="round"></line>
        </g>
        <g id="Group-2" transform="translate(22.000000, 36.000000)" fill="#000000" font-family="Rubik-Medium, Rubik" font-size="10" font-weight="400">
            <text id="7+">
                <tspan x="0.71" y="9">7+</tspan>
            </text>
        </g>
    </g>
</svg>